<?xml version="1.0" standalone="no"?>
<!DOCTYPE svg PUBLIC "-//W3C//DTD SVG 20010904//EN"
 "http://www.w3.org/TR/2001/REC-SVG-20010904/DTD/svg10.dtd">
<svg version="1.0" xmlns="http://www.w3.org/2000/svg"
 width="428.000000pt" height="428.000000pt" viewBox="0 0 428.000000 428.000000"
 preserveAspectRatio="xMidYMid meet">
<metadata>
Created by potrace 1.11, written by Peter Selinger 2001-2013
</metadata>
<g transform="translate(0.000000,428.000000) scale(0.100000,-0.100000)"
fill="#000000" stroke="none">
<path d="M1949 4276 c-2 -2 -29 -6 -59 -10 -234 -25 -466 -94 -695 -205 -103
-50 -289 -164 -351 -214 -302 -245 -494 -483 -644 -801 -89 -188 -161 -441
-187 -656 -18 -145 -9 -479 17 -620 17 -91 18 -96 45 -196 130 -477 421 -893
828 -1182 48 -34 89 -62 92 -62 2 0 21 -12 42 -26 60 -40 269 -140 374 -178
103 -37 309 -90 399 -102 30 -4 64 -9 75 -11 11 -2 115 -5 230 -8 149 -2 240
1 315 11 610 85 1152 425 1495 939 58 86 164 286 202 380 28 68 73 205 91 280
48 189 57 277 57 550 -1 228 -7 287 -52 475 -185 782 -806 1402 -1588 1585
-55 13 -122 27 -150 31 -27 3 -59 9 -70 12 -22 5 -461 13 -466 8z"/>
</g>
</svg>
